<svg width="30" height="29" viewBox="0 0 30 29" fill="none" xmlns="http://www.w3.org/2000/svg">
<rect x="0.5" y="0.5" width="29" height="28" rx="14" stroke="#372D24"/>
<path d="M14.5782 11.4684L15 12.1313L15.4218 11.4684C15.9421 10.6509 16.8617 10.125 17.9167 10.125C19.5655 10.125 20.9167 11.4761 20.9167 13.125C20.9167 13.8496 20.5819 14.6209 20.0109 15.3996C19.4436 16.1731 18.6764 16.9085 17.8917 17.5505C17.1095 18.1905 16.3247 18.7258 15.7342 19.1016C15.4394 19.2892 15.1942 19.4363 15.0234 19.5361C15.0158 19.5406 15.0083 19.5449 15.0009 19.5492C14.9934 19.5448 14.9858 19.5403 14.9779 19.5357C14.8071 19.4351 14.5618 19.287 14.267 19.0982C13.6763 18.7201 12.8913 18.182 12.1088 17.54C11.3239 16.896 10.5564 16.1595 9.98891 15.387C9.41736 14.6089 9.08334 13.8414 9.08334 13.125C9.08334 11.4761 10.4345 10.125 12.0833 10.125C13.1383 10.125 14.0579 10.6509 14.5782 11.4684Z" stroke="#372D24"/>
</svg>
